<?xml version="1.0" encoding="UTF-8" standalone="no"?>
<!DOCTYPE svg PUBLIC "-//W3C//DTD SVG 1.1//EN"
 "http://www.w3.org/Graphics/SVG/1.1/DTD/svg11.dtd">
<!-- Generated by graphviz version 2.43.0 (0)
 -->
<!-- Title: /home/aightech/dev/kistler_DAQ/lib/com_client/lib/strANSIseq/include/strANSIseq.hpp Pages: 1 -->
<svg width="266pt" height="150pt"
 viewBox="0.00 0.00 266.00 150.00" xmlns="http://www.w3.org/2000/svg" xmlns:xlink="http://www.w3.org/1999/xlink">
<g id="graph0" class="graph" transform="scale(1 1) rotate(0) translate(4 146)">
<title>/home/aightech/dev/kistler_DAQ/lib/com_client/lib/strANSIseq/include/strANSIseq.hpp</title>
<!-- Node1 -->
<g id="node1" class="node">
<title>Node1</title>
<g id="a_node1"><a xlink:title=" ">
<polygon fill="#bfbfbf" stroke="black" points="63,-89.5 63,-141.5 195,-141.5 195,-89.5 63,-89.5"/>
<text text-anchor="start" x="71" y="-129.5" font-family="Helvetica,sans-Serif" font-size="10.00">/home/aightech/dev</text>
<text text-anchor="start" x="71" y="-118.5" font-family="Helvetica,sans-Serif" font-size="10.00">/kistler_DAQ/lib/com</text>
<text text-anchor="start" x="71" y="-107.5" font-family="Helvetica,sans-Serif" font-size="10.00">_client/lib/strANSIseq</text>
<text text-anchor="middle" x="129" y="-96.5" font-family="Helvetica,sans-Serif" font-size="10.00">/include/strANSIseq.hpp</text>
</a>
</g>
</g>
<!-- Node2 -->
<g id="node2" class="node">
<title>Node2</title>
<g id="a_node2"><a xlink:href="../../df/d0a/main_8cpp.html" target="_top" xlink:title=" ">
<polygon fill="none" stroke="black" points="0,-0.5 0,-52.5 120,-52.5 120,-0.5 0,-0.5"/>
<text text-anchor="start" x="8" y="-40.5" font-family="Helvetica,sans-Serif" font-size="10.00">/home/aightech/dev</text>
<text text-anchor="start" x="8" y="-29.5" font-family="Helvetica,sans-Serif" font-size="10.00">/kistler_DAQ/lib/com</text>
<text text-anchor="start" x="8" y="-18.5" font-family="Helvetica,sans-Serif" font-size="10.00">_client/lib/strANSIseq</text>
<text text-anchor="middle" x="60" y="-7.5" font-family="Helvetica,sans-Serif" font-size="10.00">/src/main.cpp</text>
</a>
</g>
</g>
<!-- Node1&#45;&gt;Node2 -->
<g id="edge1" class="edge">
<title>Node1&#45;&gt;Node2</title>
<path fill="none" stroke="midnightblue" d="M102.6,-81.22C95.07,-71.72 86.99,-61.53 79.91,-52.61"/>
<polygon fill="midnightblue" stroke="midnightblue" points="100.09,-83.68 109.04,-89.34 105.57,-79.33 100.09,-83.68"/>
</g>
<!-- Node3 -->
<g id="node3" class="node">
<title>Node3</title>
<g id="a_node3"><a xlink:href="../../dd/d40/str_a_n_s_iseq_8cpp.html" target="_top" xlink:title=" ">
<polygon fill="none" stroke="black" points="138,-0.5 138,-52.5 258,-52.5 258,-0.5 138,-0.5"/>
<text text-anchor="start" x="146" y="-40.5" font-family="Helvetica,sans-Serif" font-size="10.00">/home/aightech/dev</text>
<text text-anchor="start" x="146" y="-29.5" font-family="Helvetica,sans-Serif" font-size="10.00">/kistler_DAQ/lib/com</text>
<text text-anchor="start" x="146" y="-18.5" font-family="Helvetica,sans-Serif" font-size="10.00">_client/lib/strANSIseq</text>
<text text-anchor="middle" x="198" y="-7.5" font-family="Helvetica,sans-Serif" font-size="10.00">/src/strANSIseq.cpp</text>
</a>
</g>
</g>
<!-- Node1&#45;&gt;Node3 -->
<g id="edge2" class="edge">
<title>Node1&#45;&gt;Node3</title>
<path fill="none" stroke="midnightblue" d="M155.4,-81.22C162.93,-71.72 171.01,-61.53 178.09,-52.61"/>
<polygon fill="midnightblue" stroke="midnightblue" points="152.43,-79.33 148.96,-89.34 157.91,-83.68 152.43,-79.33"/>
</g>
</g>
</svg>
