<?xml version="1.0" encoding="UTF-8" standalone="no"?>
<!DOCTYPE svg PUBLIC "-//W3C//DTD SVG 1.1//EN"
 "http://www.w3.org/Graphics/SVG/1.1/DTD/svg11.dtd">
<!-- Generated by graphviz version 2.43.0 (0)
 -->
<!-- Title: ESC::fstr Pages: 1 -->
<svg width="208pt" height="142pt"
 viewBox="0.00 0.00 208.00 142.00" xmlns="http://www.w3.org/2000/svg" xmlns:xlink="http://www.w3.org/1999/xlink">
<g id="graph0" class="graph" transform="scale(1 1) rotate(0) translate(4 138)">
<title>ESC::fstr</title>
<!-- Node1 -->
<g id="node1" class="node">
<title>Node1</title>
<g id="a_node1"><a xlink:title="fstr Prints a formated string.">
<polygon fill="#bfbfbf" stroke="black" points="142,-57.5 142,-76.5 200,-76.5 200,-57.5 142,-57.5"/>
<text text-anchor="middle" x="171" y="-64.5" font-family="Helvetica,sans-Serif" font-size="10.00">ESC::fstr</text>
</a>
</g>
</g>
<!-- Node2 -->
<g id="node2" class="node">
<title>Node2</title>
<g id="a_node2"><a xlink:href="../../dc/d44/class_e_s_c_1_1_c_l_i.html#a47b6c71a4c59354a3f9c0cd9bd011807" target="_top" xlink:title=" ">
<polygon fill="none" stroke="black" points="14.5,-114.5 14.5,-133.5 91.5,-133.5 91.5,-114.5 14.5,-114.5"/>
<text text-anchor="middle" x="53" y="-121.5" font-family="Helvetica,sans-Serif" font-size="10.00">ESC::CLI::CLI</text>
</a>
</g>
</g>
<!-- Node1&#45;&gt;Node2 -->
<g id="edge1" class="edge">
<title>Node1&#45;&gt;Node2</title>
<path fill="none" stroke="midnightblue" d="M147.2,-81.94C135.23,-89.42 120.14,-98.29 106,-105 98.71,-108.46 90.6,-111.7 83,-114.48"/>
<polygon fill="midnightblue" stroke="midnightblue" points="149.12,-84.87 155.68,-76.55 145.36,-78.96 149.12,-84.87"/>
</g>
<!-- Node3 -->
<g id="node3" class="node">
<title>Node3</title>
<g id="a_node3"><a xlink:href="../../d2/d52/namespace_e_s_c.html#a6f0f9c5cc6b334d09b6da6834c02af16" target="_top" xlink:title=" ">
<polygon fill="none" stroke="black" points="18.5,-76.5 18.5,-95.5 87.5,-95.5 87.5,-76.5 18.5,-76.5"/>
<text text-anchor="middle" x="53" y="-83.5" font-family="Helvetica,sans-Serif" font-size="10.00">ESC::fstr_n</text>
</a>
</g>
</g>
<!-- Node1&#45;&gt;Node3 -->
<g id="edge2" class="edge">
<title>Node1&#45;&gt;Node3</title>
<path fill="none" stroke="midnightblue" d="M131.89,-73.24C117.59,-75.58 101.46,-78.23 87.6,-80.5"/>
<polygon fill="midnightblue" stroke="midnightblue" points="132.62,-76.67 141.92,-71.6 131.49,-69.76 132.62,-76.67"/>
</g>
<!-- Node4 -->
<g id="node4" class="node">
<title>Node4</title>
<g id="a_node4"><a xlink:href="../../dc/d44/class_e_s_c_1_1_c_l_i.html#aee4e23e87ebd3cf3909f1760a5fda04b" target="_top" xlink:title=" ">
<polygon fill="none" stroke="black" points="0,-38.5 0,-57.5 106,-57.5 106,-38.5 0,-38.5"/>
<text text-anchor="middle" x="53" y="-45.5" font-family="Helvetica,sans-Serif" font-size="10.00">ESC::CLI::log_error</text>
</a>
</g>
</g>
<!-- Node1&#45;&gt;Node4 -->
<g id="edge3" class="edge">
<title>Node1&#45;&gt;Node4</title>
<path fill="none" stroke="midnightblue" d="M131.93,-60.76C123.73,-59.42 114.94,-57.98 106.32,-56.57"/>
<polygon fill="midnightblue" stroke="midnightblue" points="131.49,-64.24 141.92,-62.4 132.62,-57.33 131.49,-64.24"/>
</g>
<!-- Node5 -->
<g id="node5" class="node">
<title>Node5</title>
<g id="a_node5"><a xlink:href="../../df/d0a/main_8cpp.html#a3c04138a5bfe5d72780bb7e82a18e627" target="_top" xlink:title=" ">
<polygon fill="none" stroke="black" points="32.5,-0.5 32.5,-19.5 73.5,-19.5 73.5,-0.5 32.5,-0.5"/>
<text text-anchor="middle" x="53" y="-7.5" font-family="Helvetica,sans-Serif" font-size="10.00">main</text>
</a>
</g>
</g>
<!-- Node1&#45;&gt;Node5 -->
<g id="edge4" class="edge">
<title>Node1&#45;&gt;Node5</title>
<path fill="none" stroke="midnightblue" d="M147.2,-52.06C135.23,-44.58 120.14,-35.71 106,-29 95.58,-24.06 83.5,-19.57 73.61,-16.2"/>
<polygon fill="midnightblue" stroke="midnightblue" points="145.36,-55.04 155.68,-57.45 149.12,-49.13 145.36,-55.04"/>
</g>
</g>
</svg>
